<svg xmlns="http://www.w3.org/2000/svg" version="1.1" xmlns:xlink="http://www.w3.org/1999/xlink" width="1000" height="1000"><style>
    #light-icon {
      display: inline;
    }
    #dark-icon {
      display: none;
    }

    @media (prefers-color-scheme: dark) {
      #light-icon {
        display: none;
      }
      #dark-icon {
        display: inline;
      }
    }
  </style><g id="light-icon"><svg xmlns="http://www.w3.org/2000/svg" version="1.1" xmlns:xlink="http://www.w3.org/1999/xlink" width="1000" height="1000"><g clip-path="url(#SvgjsClipPath1031)"><rect width="1000" height="1000" fill="#ffffff"></rect><g transform="matrix(8.067397342368817,0,0,8.067397342368817,184.79065103896556,150)"><svg xmlns="http://www.w3.org/2000/svg" version="1.1" xmlns:xlink="http://www.w3.org/1999/xlink" width="78.144" height="86.769"><svg xmlns="http://www.w3.org/2000/svg" xmlspace="preserve" viewBox="0 0 78.144 86.769">
        <path fill="#A892AB" d="M19.48 26.037c.473-3.225 2.474-6.97 6.108-7.197 4.214-.396 8.453.018 12.676-.227 6.177-.034 12.36-.22 18.534-.249 2.922.3 5.169 3.21 4.46 6.112-.39 2.835-3.04 5.227-5.958 4.982-6.752.358-13.502-.352-20.252-.234-2.065-.198-4.698.627-4.528 3.173-.124 2.019 1.53 3.745 3.533 3.827 4.835.965 9.885-.82 14.643.804 3.883 2.264 2.466 8.965-1.829 9.819-4.488 1.42-9.519-1.224-13.756 1.312-2.657 2.158-2.666 5.97-2.515 9.1.258 3.205.527 7.11-2.157 9.43-3.015 2.253-8.517.458-8.622-3.614-1.05-9.754-.534-19.584-.908-29.37-.02-2.563-.008-5.158.571-7.668z"></path>
        <path fill="#555572" d="M31.69 36.533c-3.264.267-6.504 1.596-8.653 4.135-3.205 3.722-3.467 8.906-3.513 13.586.095 3.619-.403 7.423.998 10.86.776 2.035 3.026 3.137 5.13 2.838 2.433.026 4.509-1.884 5.024-4.198.53-2.534-.086-5.13-.007-7.693-.03-2.841.41-6.187 2.974-7.902 2.94-1.972 6.62-1.04 9.904-.897 2.622.212 5.788-.27 7.206-2.777 1.624-2.665.481-6.788-2.667-7.686-2.678-.795-5.507-.174-8.246-.428-2.716-.078-5.448-.201-8.15.162z"></path>
        <path fill="#555572" d="M37.51.063c-3.232.69-6.173 3.159-8.996 4.777A1296.814 1296.814 0 0 0 8.935 16.277C5.57 18.286 1.837 19.991.496 24.003c-.956 2.862-.292 6.791-.292 9.79v20.902c0 3.708-.513 7.66 1.796 10.847 1.607 2.216 4.383 3.305 6.67 4.658 4.485 2.654 8.974 5.3 13.495 7.891 3.55 2.036 7.054 4.161 10.583 6.234 2.298 1.35 4.63 2.784 7.408 2.26 3.284-.619 6.399-3.202 9.26-4.828 6.39-3.634 12.734-7.373 19.05-11.134 3.326-1.981 7.01-3.665 8.609-7.462 1.034-2.455.652-5.33.652-7.937V40.143c0-5.536 1.595-13.978-1.616-18.785-1.365-2.046-3.719-3.09-5.793-4.274-3.2-1.826-6.365-3.726-9.525-5.622a766.51 766.51 0 0 0-15.346-8.964c-2.44-1.389-4.99-3.063-7.937-2.435m1.058 6.052c2.02-.15 3.919 1.35 5.556 2.33a540.376 540.376 0 0 0 10.054 5.843c3.911 2.228 7.739 4.604 11.642 6.845 1.734.995 4.33 1.93 5.416 3.689.95 1.54.67 3.54.67 5.267V54.43c0 2.143.442 4.861-.393 6.878-1.082 2.616-5.218 4.041-7.545 5.367-5.77 3.287-11.426 6.77-17.198 10.054-2.173 1.236-4.848 3.517-7.408 3.725-1.996.162-3.936-1.24-5.556-2.212a515.293 515.293 0 0 0-10.32-6.011c-4-2.276-7.908-4.711-11.905-6.993-1.647-.94-4.16-1.958-5.11-3.69-2.094-3.812-.711-11.07-.711-15.32V32.47c0-2.25-.352-5.014.531-7.143 1.05-2.532 5.186-3.91 7.406-5.24A1116.146 1116.146 0 0 1 30.895 9.981c2.24-1.287 5.029-3.67 7.673-3.865"></path>
    </svg></svg></g></g><defs><clipPath id="SvgjsClipPath1031"><rect width="1000" height="1000" x="0" y="0" rx="350" ry="350"></rect></clipPath></defs></svg></g><g id="dark-icon"><svg xmlns="http://www.w3.org/2000/svg" version="1.1" xmlns:xlink="http://www.w3.org/1999/xlink" width="1000" height="1000"><g clip-path="url(#SvgjsClipPath1032)"><rect width="1000" height="1000" fill="#ffffff"></rect><g transform="matrix(8.067397342368817,0,0,8.067397342368817,184.79065103896556,150)"><svg xmlns="http://www.w3.org/2000/svg" version="1.1" xmlns:xlink="http://www.w3.org/1999/xlink" width="78.144" height="86.769"><svg xmlns="http://www.w3.org/2000/svg" xmlspace="preserve" viewBox="0 0 78.144 86.769">
        <path fill="#A892AB" d="M19.48 26.037c.473-3.225 2.474-6.97 6.108-7.197 4.214-.396 8.453.018 12.676-.227 6.177-.034 12.36-.22 18.534-.249 2.922.3 5.169 3.21 4.46 6.112-.39 2.835-3.04 5.227-5.958 4.982-6.752.358-13.502-.352-20.252-.234-2.065-.198-4.698.627-4.528 3.173-.124 2.019 1.53 3.745 3.533 3.827 4.835.965 9.885-.82 14.643.804 3.883 2.264 2.466 8.965-1.829 9.819-4.488 1.42-9.519-1.224-13.756 1.312-2.657 2.158-2.666 5.97-2.515 9.1.258 3.205.527 7.11-2.157 9.43-3.015 2.253-8.517.458-8.622-3.614-1.05-9.754-.534-19.584-.908-29.37-.02-2.563-.008-5.158.571-7.668z"></path>
        <path fill="#555572" d="M31.69 36.533c-3.264.267-6.504 1.596-8.653 4.135-3.205 3.722-3.467 8.906-3.513 13.586.095 3.619-.403 7.423.998 10.86.776 2.035 3.026 3.137 5.13 2.838 2.433.026 4.509-1.884 5.024-4.198.53-2.534-.086-5.13-.007-7.693-.03-2.841.41-6.187 2.974-7.902 2.94-1.972 6.62-1.04 9.904-.897 2.622.212 5.788-.27 7.206-2.777 1.624-2.665.481-6.788-2.667-7.686-2.678-.795-5.507-.174-8.246-.428-2.716-.078-5.448-.201-8.15.162z"></path>
        <path fill="#555572" d="M37.51.063c-3.232.69-6.173 3.159-8.996 4.777A1296.814 1296.814 0 0 0 8.935 16.277C5.57 18.286 1.837 19.991.496 24.003c-.956 2.862-.292 6.791-.292 9.79v20.902c0 3.708-.513 7.66 1.796 10.847 1.607 2.216 4.383 3.305 6.67 4.658 4.485 2.654 8.974 5.3 13.495 7.891 3.55 2.036 7.054 4.161 10.583 6.234 2.298 1.35 4.63 2.784 7.408 2.26 3.284-.619 6.399-3.202 9.26-4.828 6.39-3.634 12.734-7.373 19.05-11.134 3.326-1.981 7.01-3.665 8.609-7.462 1.034-2.455.652-5.33.652-7.937V40.143c0-5.536 1.595-13.978-1.616-18.785-1.365-2.046-3.719-3.09-5.793-4.274-3.2-1.826-6.365-3.726-9.525-5.622a766.51 766.51 0 0 0-15.346-8.964c-2.44-1.389-4.99-3.063-7.937-2.435m1.058 6.052c2.02-.15 3.919 1.35 5.556 2.33a540.376 540.376 0 0 0 10.054 5.843c3.911 2.228 7.739 4.604 11.642 6.845 1.734.995 4.33 1.93 5.416 3.689.95 1.54.67 3.54.67 5.267V54.43c0 2.143.442 4.861-.393 6.878-1.082 2.616-5.218 4.041-7.545 5.367-5.77 3.287-11.426 6.77-17.198 10.054-2.173 1.236-4.848 3.517-7.408 3.725-1.996.162-3.936-1.24-5.556-2.212a515.293 515.293 0 0 0-10.32-6.011c-4-2.276-7.908-4.711-11.905-6.993-1.647-.94-4.16-1.958-5.11-3.69-2.094-3.812-.711-11.07-.711-15.32V32.47c0-2.25-.352-5.014.531-7.143 1.05-2.532 5.186-3.91 7.406-5.24A1116.146 1116.146 0 0 1 30.895 9.981c2.24-1.287 5.029-3.67 7.673-3.865"></path>
    </svg></svg></g></g><defs><clipPath id="SvgjsClipPath1032"><rect width="1000" height="1000" x="0" y="0" rx="350" ry="350"></rect></clipPath></defs></svg></g></svg>